<svg width="1028" height="893" viewBox="0 0 1028 893" fill="none" xmlns="http://www.w3.org/2000/svg">
<path d="M514 119L615.227 369.272L762.293 469.005L1028 617.898L1005 668L786.645 581.44H514H248.995L15.9813 668L0 617.898L248.995 469.005L407.043 369.272L514 119Z" fill="white"/>
<path d="M659 164.5C659 249.828 590.47 354 501 354C411.53 354 343 249.328 343 164C343 78.672 411.03 0.5 500.5 0.5C589.97 0.5 659 79.172 659 164.5Z" fill="#EBE5E5"/>
<rect x="343" y="164" width="316" height="729" fill="#EBE5E5"/>
<path d="M363 140.39L420.909 100.335L499.521 69L586.525 100.335L638 140.39L618.697 169L564.984 140.39L499.521 119.136L443.849 140.39L388.738 169L363 140.39Z" fill="#818181"/>
</svg>
